# Blender 4.4.0
# www.blender.org
mtllib Campfire4.mtl
o Cube
v 1.000000 0.787695 -5.506509
v 1.000000 0.039218 -5.506509
v 1.000000 0.787695 5.506509
v 1.000000 0.039218 5.506509
v -1.000000 0.787695 -5.506509
v -1.000000 0.039218 -5.506509
v -1.000000 0.787695 5.506509
v -1.000000 0.039218 5.506509
vn -0.0000 1.0000 -0.0000
vn -0.0000 -0.0000 1.0000
vn -1.0000 -0.0000 -0.0000
vn -0.0000 -1.0000 -0.0000
vn 1.0000 -0.0000 -0.0000
vn -0.0000 -0.0000 -1.0000
vt 0.501001 0.251001
vt 0.748999 0.498999
vt 0.748999 0.251001
vt 0.501001 0.001001
vt 0.748999 0.248999
vt 0.748999 0.001001
vt 0.001001 0.501001
vt 0.248999 0.748999
vt 0.248999 0.501001
vt 0.251001 0.251001
vt 0.498999 0.498999
vt 0.498999 0.251001
vt 0.251001 0.001001
vt 0.498999 0.248999
vt 0.498999 0.001001
vt 0.001001 0.251001
vt 0.248999 0.498999
vt 0.248999 0.251001
vt 0.501001 0.498999
vt 0.501001 0.248999
vt 0.001001 0.748999
vt 0.251001 0.498999
vt 0.251001 0.248999
vt 0.001001 0.498999
s 0
usemtl Material
f 5/1/1 3/2/1 1/3/1
f 3/4/2 8/5/2 4/6/2
f 7/7/3 6/8/3 8/9/3
f 2/10/4 8/11/4 6/12/4
f 1/13/5 4/14/5 2/15/5
f 5/16/6 2/17/6 6/18/6
f 5/1/1 7/19/1 3/2/1
f 3/4/2 7/20/2 8/5/2
f 7/7/3 5/21/3 6/8/3
f 2/10/4 4/22/4 8/11/4
f 1/13/5 3/23/5 4/14/5
f 5/16/6 1/24/6 2/17/6
o Cube.001
v 5.501210 0.787695 1.020445
v 5.501210 0.039218 1.020445
v -5.511657 0.787695 0.962917
v -5.511657 0.039218 0.962917
v 5.511657 0.787695 -0.979528
v 5.511657 0.039218 -0.979528
v -5.501210 0.787695 -1.037056
v -5.501210 0.039218 -1.037056
vn -0.0000 1.0000 -0.0000
vn -1.0000 -0.0000 -0.0052
vn 0.0052 -0.0000 -1.0000
vn -0.0000 -1.0000 -0.0000
vn -0.0052 -0.0000 1.0000
vn 1.0000 -0.0000 0.0052
vt 0.501001 0.501001
vt 0.748999 0.748999
vt 0.748999 0.501001
vt 0.001001 0.751001
vt 0.248999 0.998999
vt 0.248999 0.751001
vt 0.751001 0.001001
vt 0.998999 0.248999
vt 0.998999 0.001001
vt 0.251001 0.751001
vt 0.498999 0.998999
vt 0.498999 0.751001
vt 0.251001 0.501001
vt 0.498999 0.748999
vt 0.498999 0.501001
vt 0.001001 0.001001
vt 0.248999 0.248999
vt 0.248999 0.001001
vt 0.501001 0.748999
vt 0.001001 0.998999
vt 0.751001 0.248999
vt 0.251001 0.998999
vt 0.251001 0.748999
vt 0.001001 0.248999
s 0
usemtl Material.001
f 13/25/7 11/26/7 9/27/7
f 11/28/8 16/29/8 12/30/8
f 15/31/9 14/32/9 16/33/9
f 10/34/10 16/35/10 14/36/10
f 9/37/11 12/38/11 10/39/11
f 13/40/12 10/41/12 14/42/12
f 13/25/7 15/43/7 11/26/7
f 11/28/8 15/44/8 16/29/8
f 15/31/9 13/45/9 14/32/9
f 10/34/10 12/46/10 16/35/10
f 9/37/11 11/47/11 12/38/11
f 13/40/12 9/48/12 10/41/12
o Cube.002
v -1.984382 0.744784 2.331677
v 2.926278 0.607134 -2.535617
v 0.250012 5.655850 0.059687
v -1.965852 0.735430 2.313131
v -1.984382 0.744784 2.331677
v 2.926278 0.607134 -2.535617
v -1.984382 0.744784 2.331677
v 2.926278 0.607134 -2.535617
v -1.984382 0.744784 2.331677
v 2.926278 0.607134 -2.535617
v -1.984382 0.744784 2.331677
v 2.926278 0.607134 -2.535617
v 2.926278 0.607134 -2.535617
v -1.984382 0.744784 2.331677
v 2.926278 0.607134 -2.535617
v 2.926278 0.607134 -2.535617
v 2.926278 0.607134 -2.535617
v 0.250012 5.655850 0.059687
v 2.926278 0.607134 -2.535617
v 2.926278 0.607134 -2.535617
v 2.926278 0.607134 -2.535617
v 2.926278 0.607134 -2.535617
vn 0.7069 -0.0019 0.7073
vn 0.7041 0.0082 0.7101
vt 0.752905 0.758814
vt 0.751001 0.760718
vt 0.752905 0.760718
vt 0.873999 0.498999
vt 0.751001 0.251001
vt 0.751001 0.498999
vt 0.501001 0.756811
vt 0.748999 0.754907
vt 0.501001 0.754907
vt 0.877905 0.748999
vt 0.876001 0.501001
vt 0.876001 0.748999
vt 0.501001 0.752905
vt 0.748999 0.751001
vt 0.501001 0.751001
vt 0.877905 0.498999
vt 0.876001 0.251001
vt 0.876001 0.498999
vt 0.760718 0.751001
vt 0.758814 0.752905
vt 0.760718 0.752905
vt 0.501001 0.768530
vt 0.748999 0.766626
vt 0.501001 0.766626
vt 0.756811 0.754907
vt 0.754907 0.756811
vt 0.756811 0.756811
vt 0.751001 0.758814
vt 0.873999 0.251001
vt 0.748999 0.756811
vt 0.877905 0.501001
vt 0.748999 0.752905
vt 0.877905 0.251001
vt 0.758814 0.751001
vt 0.748999 0.768530
vt 0.754907 0.754907
s 0
f 22/49/13 29/50/13 18/51/13
f 19/52/14 21/53/14 22/54/14
f 22/55/13 23/56/13 24/57/13
f 24/58/13 25/59/13 26/60/13
f 26/61/13 27/62/13 28/63/13
f 28/64/13 30/65/13 31/66/13
f 22/67/13 32/68/13 33/69/13
f 19/70/13 38/71/13 34/72/13
f 18/73/13 37/74/13 36/75/13
f 22/49/13 24/76/13 29/50/13
f 19/52/13 17/77/13 21/53/13
f 22/55/13 21/78/13 23/56/13
f 24/58/13 23/79/13 25/59/13
f 26/61/13 25/80/13 27/62/13
f 28/64/13 27/81/13 30/65/13
f 22/67/13 18/82/13 32/68/13
f 19/70/13 22/83/13 38/71/13
f 18/73/13 29/84/13 37/74/13
l 20 17
l 22 35
o Cube.003
v 2.554645 0.744247 2.364522
v -2.315704 0.606741 -2.533376
v 0.281178 5.656109 0.136004
v 2.536088 0.734892 2.346040
v 2.554645 0.744247 2.364522
v -2.315704 0.606741 -2.533376
v 2.554645 0.744247 2.364522
v -2.315704 0.606741 -2.533376
v 2.554645 0.744247 2.364522
v -2.315704 0.606741 -2.533376
v 2.554645 0.744247 2.364522
v -2.315704 0.606741 -2.533376
v -2.315704 0.606741 -2.533376
v 2.554645 0.744247 2.364522
v -2.315704 0.606741 -2.533376
v -2.315704 0.606741 -2.533376
v -2.315704 0.606741 -2.533376
v 0.281178 5.656109 0.136004
v -2.315704 0.606741 -2.533376
v -2.315704 0.606741 -2.533376
v -2.315704 0.606741 -2.533376
v -2.315704 0.606741 -2.533376
vn 0.7061 -0.0019 -0.7081
vn 0.7090 0.0082 -0.7052
vt 0.752905 0.754907
vt 0.751001 0.756811
vt 0.752905 0.756811
vt 0.873999 0.748999
vt 0.751001 0.501001
vt 0.751001 0.748999
vt 0.000000 0.000000
vt 0.881811 0.498999
vt 0.879907 0.251001
vt 0.879907 0.498999
vt 0.501001 0.764624
vt 0.748999 0.762720
vt 0.501001 0.762720
vt 0.881811 0.748999
vt 0.879907 0.501001
vt 0.879907 0.748999
vt 0.756811 0.751001
vt 0.754907 0.752905
vt 0.756811 0.752905
vt 0.501001 0.760718
vt 0.748999 0.758814
vt 0.501001 0.758814
vt 0.752905 0.751001
vt 0.751001 0.752905
vt 0.752905 0.752905
vt 0.751001 0.754907
vt 0.873999 0.501001
vt 0.881811 0.251001
vt 0.748999 0.764624
vt 0.881811 0.501001
vt 0.754907 0.751001
vt 0.748999 0.760718
vt 0.751001 0.751001
s 0
f 44/85/15 51/86/15 40/87/15
f 41/88/16 43/89/16 44/90/16
f 44/91/15 45/91/15 46/91/15
f 46/92/15 47/93/15 48/94/15
f 48/95/15 49/96/15 50/97/15
f 50/98/15 52/99/15 53/100/15
f 44/101/15 54/102/15 55/103/15
f 41/104/15 60/105/15 56/106/15
f 40/107/15 59/108/15 58/109/15
f 44/85/15 46/110/15 51/86/15
f 41/88/15 39/111/15 43/89/15
f 44/91/15 43/91/15 45/91/15
f 46/92/15 45/112/15 47/93/15
f 48/95/15 47/113/15 49/96/15
f 50/98/15 49/114/15 52/99/15
f 44/101/15 40/115/15 54/102/15
f 41/104/15 44/116/15 60/105/15
f 40/107/15 51/117/15 59/108/15
l 42 39
l 44 57
